<svg xmlns="http://www.w3.org/2000/svg" width="844" height="250"><path d="M250 125c0 69.036-55.964 125-125 125S0 194.036 0 125 55.964 0 125 0s125 55.964 125 125z" fill="none"/><path d="M250 125c0 69.036-55.964 125-125 125S0 194.036 0 125 55.964 0 125 0s125 55.964 125 125z" fill="none"/><path d="M125 0C55.966 0 0 55.966 0 125c0 69.034 55.966 125 125 125 38.522 0 72.96-17.435 95.889-44.833-21.077 21.967-50.714 35.64-83.561 35.64-63.96 0-115.83-51.847-115.83-115.807S73.367 9.193 137.327 9.193c32.823 0 62.44 13.654 83.514 35.593C197.912 17.419 163.496 0 125 0z" fill="#0096db"/><path d="M137.298 15.523c60.461 0 109.478 49.016 109.478 109.477 0 60.461-49.017 109.477-109.478 109.477-33.738 0-63.9-15.27-83.981-39.265 18.46 19.239 44.416 31.214 73.184 31.214 56.018 0 101.447-45.408 101.447-101.426S182.518 23.574 126.501 23.574c-28.747 0-54.686 11.958-73.143 31.173 20.082-23.969 50.225-39.224 83.94-39.224z" fill="#a83da3"/><g font-size="114.446" font-weight="400" letter-spacing="0" word-spacing="0" font-family="NordiquePro-Semibold"><path style="text-align:start;line-height:125%;-inkscape-font-specification:NordiquePro-Semibold" d="M162.082 83.334c-13.086 0-23.402 2.752-30.975 8.218 4.022 4.836 6.946 10.58 8.84 17.06.268-.252.535-.515.82-.753 4.734-3.98 11.843-5.96 21.315-5.96h36.936V83.334h-36.936zm-19.384 60.248v20.531c5.603 1.716 12.05 2.554 19.384 2.554h36.936V148.1h-36.936c-8.266 0-14.726-1.489-19.384-4.519z" fill="#a83da3"/><path style="text-align:start;line-height:125%;-inkscape-font-specification:NordiquePro-Semibold" d="M92.666 83.334c-12.627 0-22.746 3.892-30.321 11.656-7.576 7.765-11.362 19.369-11.362 34.774v36.903h18.565v-36.903c0-9.471 1.981-16.582 5.96-21.316 3.978-4.734 9.71-7.105 17.158-7.105s13.146 2.371 17.125 7.105c3.63 4.32 5.61 10.626 5.926 18.893.455 11.544 4.312 20.86 11.592 27.963a34.142 34.142 0 007.007 5.24v-30.78c0-15.405-3.787-27.01-11.362-34.774-7.576-7.764-17.662-11.656-30.288-11.656z" fill="#0096db"/></g><g font-size="114.446" font-weight="400" letter-spacing="0" word-spacing="0" font-family="NordiquePro-Semibold"><path style="text-align:start;line-height:125%;-inkscape-font-specification:NordiquePro-Semibold" d="M347.208 122.867c0-13.349-3.282-23.387-9.846-30.115-6.564-6.727-15.317-10.091-26.258-10.091-10.941 0-19.694 3.364-26.258 10.091-6.564 6.728-9.846 16.766-9.846 30.115v43.16h16.081v-43.16c0-8.207 1.724-14.361 5.171-18.463s8.398-6.153 14.852-6.153c6.454 0 11.404 2.051 14.852 6.153 3.447 4.102 5.17 10.256 5.17 18.463v43.16h16.082zm65.973-38.894v43.16c0 8.208-1.723 14.362-5.17 18.464-3.448 4.101-8.398 6.152-14.852 6.152-6.454 0-11.405-2.05-14.852-6.152-3.448-4.102-5.171-10.256-5.171-18.463V83.973h-16.082v43.16c0 13.35 3.282 23.388 9.847 30.115 6.564 6.728 15.316 10.092 26.258 10.092 10.94 0 19.694-3.364 26.258-10.092 6.564-6.727 9.846-16.766 9.846-30.114V83.973z" fill="#0096db"/><path style="text-align:start;line-height:125%;-inkscape-font-specification:NordiquePro-Semibold" d="M480.627 167.34c-7.656 0-14.739-1.887-21.25-5.662-6.51-3.774-11.653-8.916-15.427-15.425-3.775-6.51-5.662-13.593-5.662-21.253 0-7.659 1.887-14.743 5.662-21.252 3.774-6.51 8.917-11.65 15.427-15.425 6.511-3.775 13.594-5.662 21.25-5.662 8.865 0 16.852 2.517 23.962 7.55 7.11 5.033 12.142 11.543 15.097 19.53h-17.233a26.915 26.915 0 00-9.188-8.372c-3.72-2.078-7.878-3.118-12.473-3.118-4.921 0-9.406 1.177-13.454 3.529s-7.222 5.579-9.52 9.68c-2.3 4.102-3.449 8.616-3.449 13.54 0 4.925 1.176 9.438 3.528 13.54 2.353 4.102 5.526 7.329 9.521 9.68 3.995 2.353 8.453 3.53 13.374 3.53 4.488 0 8.564-.985 12.228-2.953 3.664-1.968 6.7-4.704 9.107-8.206h17.56c-2.956 7.986-7.988 14.441-15.098 19.364s-15.097 7.385-23.962 7.385zm89.747 0c-7.655 0-14.711-1.887-21.167-5.662-6.455-3.774-11.598-8.916-15.428-15.425-3.83-6.51-5.744-13.593-5.744-21.253 0-7.659 1.915-14.743 5.744-21.252 3.83-6.51 8.973-11.65 15.428-15.425 6.456-3.775 13.512-5.662 21.167-5.662 7.66 0 14.717 1.887 21.173 5.662 6.455 3.774 11.57 8.916 15.345 15.425 3.774 6.51 5.662 13.593 5.662 21.252v41.028h-16.087v-12.966c-1.966 4.05-5.384 7.442-10.254 10.176-4.87 2.735-10.15 4.102-15.839 4.102zm.166-15.59c4.925 0 9.356-1.177 13.294-3.53 3.938-2.351 7.056-5.578 9.353-9.68 2.297-4.102 3.446-8.615 3.446-13.54 0-4.924-1.121-9.438-3.363-13.54-2.243-4.101-5.36-7.328-9.353-9.68-3.994-2.352-8.452-3.529-13.377-3.529-4.922 0-9.407 1.177-13.455 3.529s-7.222 5.579-9.52 9.68c-2.3 4.102-3.449 8.616-3.449 13.54 0 4.925 1.176 9.438 3.529 13.54 2.352 4.102 5.525 7.329 9.52 9.68 3.995 2.353 8.453 3.53 13.375 3.53zm142.664-69.09c10.72.001 19.336 3.392 25.845 10.175 6.509 6.783 9.763 16.794 9.763 30.032v43.16h-16.081v-43.16c0-8.207-1.669-14.361-5.006-18.463s-8.177-6.153-14.521-6.153c-6.237 0-11.052 2.051-14.444 6.153-3.392 4.102-5.088 10.256-5.088 18.463v43.16H677.59v-43.16c0-8.207-1.67-14.361-5.006-18.463-3.337-4.102-8.178-6.153-14.521-6.153-6.237 0-11.052 2.051-14.444 6.153-3.393 4.102-5.089 10.256-5.089 18.463v43.16h-16.08v-43.16c0-13.238 3.255-23.25 9.764-30.032 6.508-6.783 15.125-10.174 25.85-10.174 6.126 0 11.596 1.285 16.409 3.856 4.813 2.571 8.533 6.372 11.16 11.404 2.625-5.032 6.344-8.833 11.16-11.404 4.814-2.57 10.284-3.856 16.411-3.856zM758.675 125c0-7.66 1.888-14.743 5.662-21.252 3.775-6.51 8.89-11.651 15.346-15.426 6.455-3.774 13.51-5.661 21.167-5.661 7.66 0 14.717 1.887 21.172 5.661 6.456 3.775 11.598 8.917 15.428 15.426s5.744 13.593 5.745 21.252c0 7.66-1.915 14.744-5.745 21.253s-8.972 11.65-15.428 15.425c-6.455 3.775-13.513 5.662-21.172 5.662-5.359 0-10.227-1.04-14.604-3.118-4.377-2.078-8.152-4.977-11.324-8.697v43.327h-16.247V125zm42.175 26.75c4.925 0 9.384-1.177 13.377-3.53 3.993-2.351 7.138-5.578 9.435-9.68 2.297-4.102 3.446-8.615 3.446-13.54 0-4.924-1.149-9.438-3.446-13.54-2.297-4.101-5.442-7.328-9.435-9.68-3.993-2.353-8.452-3.529-13.377-3.529-4.922 0-9.379 1.176-13.372 3.528-3.993 2.353-7.139 5.58-9.436 9.681-2.297 4.102-3.445 8.616-3.445 13.54 0 4.925 1.148 9.438 3.445 13.54 2.297 4.102 5.47 7.329 9.519 9.68 4.048 2.353 8.478 3.53 13.289 3.53z" fill="#a83da3"/></g></svg>